<svg width="91" height="91" xmlns="http://www.w3.org/2000/svg">

 <g>
  <title>background</title>
  <rect fill="none" id="canvas_background" height="402" width="582" y="-1" x="-1"/>
 </g>
 <g>
  <title>Layer 1</title>
  <path fill="#ffffff" id="svg_2" d="m42.762,19.428l-1.701,0l0,6.887c-12.799,0.88 -22.949,11.545 -22.949,24.563c0,13.592 11.059,24.65 24.65,24.65c13.016,0 23.682,-10.152 24.561,-22.949l6.887,0l0,-1.701c-0.001,-17.342 -14.108,-31.45 -31.448,-31.45zm0,52.699c-11.719,0 -21.25,-9.533 -21.25,-21.25c0,-11.145 8.623,-20.313 19.549,-21.182l0,22.883l22.881,0c-0.87,10.925 -10.036,19.549 -21.18,19.549zm24.646,-22.949l-22.947,0l0,-22.949l0,-3.35c14.115,0.848 25.449,12.184 26.297,26.299l-3.35,0z"/>
 </g>
</svg>